<?xml version="1.0" encoding="UTF-8" standalone="no"?>
<!-- Generator: Adobe Illustrator 19.2.1, SVG Export Plug-In . SVG Version: 6.00 Build 0)  -->

<svg
   xmlns:dc="http://purl.org/dc/elements/1.1/"
   xmlns:cc="http://creativecommons.org/ns#"
   xmlns:rdf="http://www.w3.org/1999/02/22-rdf-syntax-ns#"
   xmlns:svg="http://www.w3.org/2000/svg"
   xmlns="http://www.w3.org/2000/svg"
   xmlns:sodipodi="http://sodipodi.sourceforge.net/DTD/sodipodi-0.dtd"
   xmlns:inkscape="http://www.inkscape.org/namespaces/inkscape"
   version="1.1"
   id="Layer_1"
   x="0px"
   y="0px"
   viewBox="0 0 34.999999 27"
   xml:space="preserve"
   inkscape:version="0.92.4 5da689c313, 2019-01-14"
   sodipodi:docname="fishbowl_newline.svg"
   width="35"
   height="27"><metadata
     id="metadata4242"><rdf:RDF><cc:Work
         rdf:about=""><dc:format>image/svg+xml</dc:format><dc:type
           rdf:resource="http://purl.org/dc/dcmitype/StillImage" /><dc:title></dc:title></cc:Work></rdf:RDF></metadata><defs
     id="defs4240" /><sodipodi:namedview
     pagecolor="#ffffff"
     bordercolor="#666666"
     borderopacity="1"
     objecttolerance="10"
     gridtolerance="10"
     guidetolerance="10"
     inkscape:pageopacity="0"
     inkscape:pageshadow="2"
     inkscape:window-width="1600"
     inkscape:window-height="863"
     id="namedview4238"
     showgrid="false"
     fit-margin-top="0"
     fit-margin-left="0"
     fit-margin-right="0"
     fit-margin-bottom="0"
     inkscape:zoom="15.301101"
     inkscape:cx="37.056324"
     inkscape:cy="5.5108129"
     inkscape:window-x="0"
     inkscape:window-y="18"
     inkscape:window-maximized="0"
     inkscape:current-layer="g4212" /><style
     type="text/css"
     id="style4210">
	.st0{fill:#ECECEC;}
</style><g
     id="g4212"
     transform="matrix(0.21052744,0,0,0.21052744,-0.6529858,-6.0559244)"><g
       id="g838"
       transform="translate(-137.87472,1.4660341)"><path
         style="fill:#ececec;stroke-width:0.51103872"
         inkscape:connector-curvature="0"
         id="path4214"
         d="m 253.35749,62.763463 c 1.2776,-3.117337 6.74572,-4.803764 11.90719,1.022077 3.98611,4.49714 10.3741,3.015128 10.3741,3.015128 0,0 -4.29273,-2.555192 -6.74571,-8.58545 -3.9861,-9.863047 6.49018,-23.712196 6.49018,-23.712196 0,0 -6.5924,-1.175389 -9.86304,2.24857 -5.36591,5.621426 -1.63532,14.666811 -5.62143,16.813174 -2.19746,1.175389 -7.10344,-0.715454 -8.84097,-2.759609 -1.89084,-2.197467 -1.78864,-4.75266 0.30662,-6.796816 2.96403,-2.91292 6.84792,-2.350777 6.84792,-2.350777 0,0 -2.86181,-3.117337 -9.55641,-3.934998 -4.19053,-0.511039 -7.61448,1.226492 -9.65865,2.452986 -7.35894,-4.139414 -17.88635,-7.358959 -27.39167,-7.563374 -8.27882,-0.153311 -14.76901,0.715455 -19.52168,1.83974 0.0511,0.306623 0.0511,0.613246 0,0.919869 -0.30662,1.379805 -1.53311,2.197468 -2.8107,1.890843 -0.81767,-0.204415 -1.43092,-0.817661 -1.68644,-1.58422 -3.52616,1.175389 -5.26369,2.197468 -5.26369,2.197468 0,0 2.45298,4.394932 10.6296,8.125515 -8.84096,-3.16844 -12.92927,-7.461166 -12.92927,-7.461166 0,0 -1.83975,-0.408831 -3.93501,0.306623 -2.45298,0.868766 -2.75961,2.452986 -2.35078,3.16844 0.10222,0.153313 0.81767,0.664351 1.94195,1.379805 -1.07317,2.350778 -2.29967,6.081362 -2.75961,10.220774 -1.37981,12.26493 1.68644,18.192979 1.68644,18.192979 0,0 1.4309,-9.965255 4.90596,-16.404343 0.81766,-1.533116 1.58422,-2.759608 2.29967,-3.781687 0,1.124286 0,2.299674 0.0511,3.526168 0.30663,7.869996 3.8839,14.155773 3.8839,14.155773 0.61324,-5.825842 0.40883,-5.263699 1.89084,-10.834022 0.30663,-1.175388 0.66435,-2.197466 1.02208,-3.066232 1.99305,6.950127 6.95012,11.293955 6.95012,11.293955 -0.56214,-5.314801 -0.76656,-3.628374 -0.45994,-8.892072 0.0511,-1.17539 0.20442,-2.197467 0.35774,-3.066233 0.40882,1.124285 1.02207,2.299674 1.78863,3.270648 3.27064,4.037205 7.15454,4.446037 7.15454,4.446037 0,0 -1.89084,-3.066232 -2.5552,-6.745711 -0.35772,-1.941948 -0.15331,-3.219545 -0.2044,-3.883895 2.14635,-0.357727 3.93499,-1.124285 5.3659,-1.993051 1.37981,3.219545 5.92805,15.17785 3.27065,26.062975 -0.45994,-0.255519 -1.07319,-0.664351 -1.78864,-1.277597 -2.50409,-2.197467 -3.47506,-4.037205 -3.47506,-4.037205 0,0 -0.76656,4.650451 1.02208,9.096488 0.20441,0.459935 0.35772,0.868766 0.51103,1.277597 -0.15331,-0.102204 -0.30662,-0.153311 -0.45994,-0.255519 -4.24162,-2.50409 -6.23466,-6.847918 -6.23466,-6.847918 0,0 -0.15331,6.336878 2.81071,12.316032 -0.97098,-0.40883 -2.04415,-0.919869 -3.27065,-1.686427 -4.80376,-2.912922 -4.29273,-2.657402 -8.63655,-6.336881 0,0 2.29967,6.847919 7.35896,12.571553 0.30662,0.357726 0.61325,0.664349 0.91987,1.022077 -1.63532,-0.357728 -3.73059,-0.970974 -6.23468,-2.095258 -6.84791,-3.066233 -6.08135,-2.810713 -12.41823,-6.950127 0,0 3.83279,8.074411 11.03844,14.666811 -2.60631,1.737531 -4.44605,2.912916 -4.59936,3.679476 -0.30662,1.53312 0.86877,4.80377 6.23467,5.97916 4.08831,0.91986 6.38799,1.22649 8.53435,0.1022 2.29967,-1.17539 9.30091,-9.607529 12.67376,-20.390446 -2.14637,12.775968 -10.32298,20.952586 -10.32298,20.952586 0,0 32.70647,-2.09526 43.84712,-20.645962 1.63532,0.66435 4.95707,1.3287 10.88512,0 7.71668,-1.737532 11.49838,-5.2637 11.49838,-5.2637 0,0 -8.12552,-1.788635 -11.60058,-5.263698 -3.37285,-3.372856 -4.39493,-6.745711 -4.39493,-6.745711 0,0 -0.10222,3.986103 -1.27761,7.767789 -0.76656,2.350777 -1.99304,4.24162 -3.21954,5.672529 0.10222,-0.25552 0.20442,-0.511038 0.30662,-0.817661 4.08831,-11.753891 1.63533,-15.484474 3.32175,-19.623887 z m -51.35939,-22.4346 c -0.40883,2.095258 -2.40189,3.42396 -4.34384,2.912921 -1.99304,-0.459935 -3.21954,-2.555194 -2.8107,-4.650452 0.40883,-2.095259 2.40187,-3.42396 4.34383,-2.912922 1.99304,0.51104 3.21954,2.555194 2.81071,4.650453 z m 24.12102,42.211798 c -0.35772,3.526168 2.5552,5.672529 2.5552,5.672529 0,0 -2.60629,-0.562141 -3.73059,-1.277595 -2.6574,-1.737533 -3.27064,-3.577273 -3.27064,-5.110388 -2.19746,7.716685 -4.44604,10.067463 -4.44604,10.067463 0,0 1.63533,-4.75266 2.81072,-10.936229 1.3287,-7.052334 -0.76656,-13.542525 -0.76656,-13.542525 0,0 3.67948,4.701555 3.01512,11.293955 0.91987,-2.606298 3.06624,-6.745712 6.49019,-7.869997 3.73059,-1.277597 7.76779,2.146363 7.76779,2.146363 0,0 -9.55642,1.124285 -10.42519,9.556424 z"
         class="st0" /><g
         transform="matrix(0.27658216,0,0,0.27658216,88.174644,112.25124)"
         id="g4216"><path
           style="fill:#ececec"
           inkscape:connector-curvature="0"
           id="path4218"
           d="m 288.6,23.8 c 1.6,0 6.4,-0.4 6.4,2.3 0,1.1 -8.6,19.8 -10.3,19.8 -2.3,0 -6.3,-6.3 -19.4,-6.3 -9.2,0 -19,5.5 -19,18.4 0,8 0.4,10.6 4.3,10.6 8.7,0 9.5,-6.2 27.2,-6.2 1.5,0 4.6,0 4.6,2.3 0,0.7 -5.2,21.6 -7.5,21.6 -1.3,0 -5,-1.9 -10.2,-1.9 -11.8,0 -17.7,6.8 -17.7,17.8 0,11.7 5.4,30.4 5.2,31.9 0.1,1.6 -3.2,1.2 -4.4,1.2 H 232 c -3.3,0 -7.4,2.5 -7.4,-47.7 0,-66.2 7,-63.8 9.2,-63.8 z"
           class="st0" /><path
           style="fill:#ececec"
           inkscape:connector-curvature="0"
           id="path4220"
           d="m 304.5,135.2 c -6.6,0 -7.1,2.8 -7.1,-44.3 0,-45.8 2.1,-41.4 6.6,-41.4 h 7.4 c 5.6,0 5.8,0.4 5.8,2 0,5 -1.6,9.9 -1.6,24.5 0,33.8 5.2,54.5 5.2,55.7 0,4.3 -4,3.5 -7.1,3.5 z m -5.6,-105 c 0,-5.8 5,-9.2 10.3,-9.2 5.4,0 10.3,3.5 10.3,9.2 0,5.7 -5,8.8 -10.3,8.8 -5.4,0 -10.3,-3.1 -10.3,-8.8 z"
           class="st0" /><path
           style="fill:#ececec"
           inkscape:connector-curvature="0"
           id="path4222"
           d="m 332.1,113.2 c 0,-6.3 3.2,-14.3 4.3,-14.3 0.7,0 4,20.2 23,20.2 5.5,0 11.9,-2.8 11.9,-9.6 0,-13.8 -36.2,-10.2 -36.2,-36.8 0,-16.3 13.1,-25.2 27.6,-25.2 16.7,0 26,10 26,12.7 0,2.5 -7.5,13.4 -10.6,13.4 -3.5,0 -4.3,-10.3 -16.6,-10.3 -4.2,0 -9.8,1.9 -9.8,5.9 0,13.8 39.1,13.5 39.1,40.7 0,17.4 -14.5,27.3 -30.5,27.3 -14.1,0 -28.2,-8.3 -28.2,-24 z"
           class="st0" /><path
           style="fill:#ececec"
           inkscape:connector-curvature="0"
           id="path4224"
           d="m 425.1,20.9 c 1.2,0 2.1,1.5 2.1,2.8 0,1.9 -5.1,15 -5.1,25.7 0,1.6 0,4.2 2.3,4.2 1.1,0 3.2,-1.2 6.2,-2.9 3.1,-1.6 6.8,-3.2 11.3,-3.2 12.2,0 21.2,8.7 21.2,41 0,12.9 -1.9,46.7 -6,46.7 H 443 c -1.2,0 -4.8,0.4 -4.8,-1.7 0,-0.9 6.7,-27.5 6.7,-45.3 0,-20.8 -3.5,-24.9 -10,-24.9 -13.7,0 -13.9,20.9 -13.9,30.4 0,26.8 2.9,35.5 2.9,39.4 0,2.1 -2.5,2.1 -3.9,2.1 h -13.3 c -3.9,0 -3.9,4.6 -3.9,-54.9 0,-10.7 0.3,-59.3 7.6,-59.3 h 14.7 z"
           class="st0" /><path
           style="fill:#ececec"
           inkscape:connector-curvature="0"
           id="path4226"
           d="m 483.1,135.2 c -3.3,0 -7.4,2.5 -7.4,-47.7 0,-66.2 7,-63.8 9.2,-63.8 h 34.7 c 23.7,0 27.3,11 27.3,19.6 0,14.7 -15.3,23.3 -15.3,27.5 0,4.7 21.6,15.5 21.6,38.6 0,13.1 -7.9,25.9 -29.9,25.9 h -40.2 z m 32.6,-72.7 c 3.9,-2.8 9.5,-9.4 9.5,-14.9 0,-6.4 -5.6,-8 -10.7,-8 -13.3,0 -19.3,5.8 -19.3,26.7 0,2.7 -0.3,6.2 3.5,6.2 1.6,0 5.1,-1.5 7.2,-2.9 z m -13.9,25.4 c -3.6,2 -5.8,2.8 -5.8,7.2 0,20.4 5.1,22.9 16.1,22.9 9.6,0 19.4,-3.8 19.4,-14.2 0,-9.5 -11.8,-22.9 -15.4,-22.9 -1.7,0 -4.2,1.5 -5.6,2.3 z"
           class="st0" /><path
           style="fill:#ececec"
           inkscape:connector-curvature="0"
           id="path4228"
           d="m 560.5,92.2 c 0,-21.6 10.3,-44.7 33.6,-44.7 23.3,0 33.6,23.2 33.6,44.7 0,31.5 -18.2,45 -33.6,45 -15.4,0 -33.6,-13.5 -33.6,-45 z m 50.6,-3.4 c 0,-10.6 -3.8,-25.6 -17,-25.6 -13.3,0 -17,15 -17,25.6 0,10.7 3.5,26 17,26 13.5,0 17,-15.2 17,-26 z"
           class="st0" /><path
           style="fill:#ececec"
           inkscape:connector-curvature="0"
           id="path4230"
           d="m 718.1,49.5 c 5.4,0 6.3,-0.3 6.3,13.3 0,48.6 -26.4,74.5 -29.6,74.5 -3.8,0 -10.8,-14.6 -12.5,-17.9 -0.4,-0.8 -3.1,-7.5 -4.7,-7.5 -1.3,0 -2.9,3.6 -3.5,4.7 -1.5,3.1 -10.8,20.8 -14.6,20.8 -4.2,0 -26.3,-28.9 -26.3,-73.1 0,-16.2 2.1,-14.6 7.4,-14.6 h 10.6 c 1.6,0.1 3.1,0 3.1,2 0,1.2 -1.5,4.6 -1.5,16.6 0,22.9 6.3,40.7 8.6,40.7 2.3,0 11.4,-9 11,-42.9 0,-4.8 -0.8,-12.2 -0.8,-14.3 0,-1.6 0.5,-2.1 2,-2.1 h 13.3 c 1.2,0.1 2.9,-0.1 2.9,1.9 0,1.6 -1.2,10 -1.2,17 0,25 6.4,40.5 9.2,40.5 3.2,0 9.9,-19 9.9,-39 0,-8.8 -1.7,-14.9 -1.7,-18.4 0,-2.4 2.9,-2 4.7,-2 h 7.4 z"
           class="st0" /><path
           style="fill:#ececec"
           inkscape:connector-curvature="0"
           id="path4232"
           d="m 738.8,135.2 c -4.7,0 -4.2,-44.9 -4.2,-48 0,-6.3 -0.5,-66.3 5.5,-66.3 h 12.7 c 1.5,0 5.5,-0.4 5.5,2.5 0,0.8 -5.6,20.1 -5.6,53.4 0,36.8 5.1,54.9 5.1,56.7 0,2.3 -3.5,1.6 -5,1.6 h -14 z"
           class="st0" /></g></g></g></svg>