<?xml version="1.0" encoding="UTF-8" standalone="no"?>
<!-- Generator: Adobe Illustrator 19.2.1, SVG Export Plug-In . SVG Version: 6.00 Build 0)  -->

<svg
   xmlns:dc="http://purl.org/dc/elements/1.1/"
   xmlns:cc="http://creativecommons.org/ns#"
   xmlns:rdf="http://www.w3.org/1999/02/22-rdf-syntax-ns#"
   xmlns:svg="http://www.w3.org/2000/svg"
   xmlns="http://www.w3.org/2000/svg"
   xmlns:sodipodi="http://sodipodi.sourceforge.net/DTD/sodipodi-0.dtd"
   xmlns:inkscape="http://www.inkscape.org/namespaces/inkscape"
   version="1.1"
   id="Layer_1"
   x="0px"
   y="0px"
   viewBox="0 0 170.86372 31"
   xml:space="preserve"
   inkscape:version="0.92.4 5da689c313, 2019-01-14"
   sodipodi:docname="fishbowl_logo.svg"
   width="170.86372"
   height="31"><metadata
     id="metadata4242"><rdf:RDF><cc:Work
         rdf:about=""><dc:format>image/svg+xml</dc:format><dc:type
           rdf:resource="http://purl.org/dc/dcmitype/StillImage" /><dc:title></dc:title></cc:Work></rdf:RDF></metadata><defs
     id="defs4240" /><sodipodi:namedview
     pagecolor="#ffffff"
     bordercolor="#666666"
     borderopacity="1"
     objecttolerance="10"
     gridtolerance="10"
     guidetolerance="10"
     inkscape:pageopacity="0"
     inkscape:pageshadow="2"
     inkscape:window-width="1600"
     inkscape:window-height="863"
     id="namedview4238"
     showgrid="false"
     fit-margin-top="0"
     fit-margin-left="0"
     fit-margin-right="0"
     fit-margin-bottom="0"
     inkscape:zoom="5.409756"
     inkscape:cx="53.439004"
     inkscape:cy="21.155829"
     inkscape:window-x="0"
     inkscape:window-y="18"
     inkscape:window-maximized="0"
     inkscape:current-layer="g4212" /><style
     type="text/css"
     id="style4210">
	.st0{fill:#ECECEC;}
</style><g
     id="g4212"
     transform="matrix(0.21052744,0,0,0.21052744,-0.6529858,-2.0559244)"><path
       class="st0"
       d="m 161.2,68.8 c 2.5,-6.1 13.2,-9.4 23.3,2 7.8,8.8 20.3,5.9 20.3,5.9 0,0 -8.4,-5 -13.2,-16.8 -7.8,-19.3 12.7,-46.4 12.7,-46.4 0,0 -12.9,-2.3 -19.3,4.4 -10.5,11 -3.2,28.7 -11,32.9 -4.3,2.3 -13.9,-1.4 -17.3,-5.4 -3.7,-4.3 -3.5,-9.3 0.6,-13.3 5.8,-5.7 13.4,-4.6 13.4,-4.6 0,0 -5.6,-6.1 -18.7,-7.7 -8.2,-1 -14.9,2.4 -18.9,4.8 C 118.7,16.5 98.1,10.2 79.5,9.8 63.3,9.5 50.6,11.2 41.3,13.4 c 0.1,0.6 0.1,1.2 0,1.8 -0.6,2.7 -3,4.3 -5.5,3.7 -1.6,-0.4 -2.8,-1.6 -3.3,-3.1 -6.9,2.3 -10.3,4.3 -10.3,4.3 0,0 4.8,8.6 20.8,15.9 C 25.7,29.8 17.7,21.4 17.7,21.4 c 0,0 -3.6,-0.8 -7.7,0.6 -4.8,1.7 -5.4,4.8 -4.6,6.2 0.2,0.3 1.6,1.3 3.8,2.7 -2.1,4.6 -4.5,11.9 -5.4,20 -2.7,24 3.3,35.6 3.3,35.6 0,0 2.8,-19.5 9.6,-32.1 1.6,-3 3.1,-5.4 4.5,-7.4 0,2.2 0,4.5 0.1,6.9 0.6,15.4 7.6,27.7 7.6,27.7 1.2,-11.4 0.8,-10.3 3.7,-21.2 0.6,-2.3 1.3,-4.3 2,-6 3.9,13.6 13.6,22.1 13.6,22.1 -1.1,-10.4 -1.5,-7.1 -0.9,-17.4 0.1,-2.3 0.4,-4.3 0.7,-6 0.8,2.2 2,4.5 3.5,6.4 6.4,7.9 14,8.7 14,8.7 0,0 -3.7,-6 -5,-13.2 -0.7,-3.8 -0.3,-6.3 -0.4,-7.6 4.2,-0.7 7.7,-2.2 10.5,-3.9 2.7,6.3 11.6,29.7 6.4,51 -0.9,-0.5 -2.1,-1.3 -3.5,-2.5 -4.9,-4.3 -6.8,-7.9 -6.8,-7.9 0,0 -1.5,9.1 2,17.8 0.4,0.9 0.7,1.7 1,2.5 -0.3,-0.2 -0.6,-0.3 -0.9,-0.5 C 60.5,99 56.6,90.5 56.6,90.5 c 0,0 -0.3,12.4 5.5,24.1 -1.9,-0.8 -4,-1.8 -6.4,-3.3 -9.4,-5.7 -8.4,-5.2 -16.9,-12.4 0,0 4.5,13.4 14.4,24.6 0.6,0.7 1.2,1.3 1.8,2 -3.2,-0.7 -7.3,-1.9 -12.2,-4.1 -13.4,-6 -11.9,-5.5 -24.3,-13.6 0,0 7.5,15.8 21.6,28.7 -5.1,3.4 -8.7,5.7 -9,7.2 -0.6,3 1.7,9.4 12.2,11.7 8,1.8 12.5,2.4 16.7,0.2 4.5,-2.3 18.2,-18.8 24.8,-39.9 -4.2,25 -20.2,41 -20.2,41 0,0 64,-4.1 85.8,-40.4 3.2,1.3 9.7,2.6 21.3,0 15.1,-3.4 22.5,-10.3 22.5,-10.3 0,0 -15.9,-3.5 -22.7,-10.3 -6.6,-6.6 -8.6,-13.2 -8.6,-13.2 0,0 -0.2,7.8 -2.5,15.2 -1.5,4.6 -3.9,8.3 -6.3,11.1 0.2,-0.5 0.4,-1 0.6,-1.6 8,-23 3.2,-30.3 6.5,-38.4 z M 60.7,24.9 c -0.8,4.1 -4.7,6.7 -8.5,5.7 -3.9,-0.9 -6.3,-5 -5.5,-9.1 0.8,-4.1 4.7,-6.7 8.5,-5.7 3.9,1 6.3,5 5.5,9.1 z m 47.2,82.6 c -0.7,6.9 5,11.1 5,11.1 0,0 -5.1,-1.1 -7.3,-2.5 -5.2,-3.4 -6.4,-7 -6.4,-10 -4.3,15.1 -8.7,19.7 -8.7,19.7 0,0 3.2,-9.3 5.5,-21.4 2.6,-13.8 -1.5,-26.5 -1.5,-26.5 0,0 7.2,9.2 5.9,22.1 1.8,-5.1 6,-13.2 12.7,-15.4 7.3,-2.5 15.2,4.2 15.2,4.2 0,0 -18.7,2.2 -20.4,18.7 z"
       id="path4214"
       inkscape:connector-curvature="0"
       style="fill:#ececec" /><g
       id="g4216"><path
         class="st0"
         d="m 288.6,23.8 c 1.6,0 6.4,-0.4 6.4,2.3 0,1.1 -8.6,19.8 -10.3,19.8 -2.3,0 -6.3,-6.3 -19.4,-6.3 -9.2,0 -19,5.5 -19,18.4 0,8 0.4,10.6 4.3,10.6 8.7,0 9.5,-6.2 27.2,-6.2 1.5,0 4.6,0 4.6,2.3 0,0.7 -5.2,21.6 -7.5,21.6 -1.3,0 -5,-1.9 -10.2,-1.9 -11.8,0 -17.7,6.8 -17.7,17.8 0,11.7 5.4,30.4 5.2,31.9 0.1,1.6 -3.2,1.2 -4.4,1.2 l -15.8,0 c -3.3,0 -7.4,2.5 -7.4,-47.7 0,-66.2 7,-63.8 9.2,-63.8 l 54.8,0 z"
         id="path4218"
         inkscape:connector-curvature="0"
         style="fill:#ececec" /><path
         class="st0"
         d="m 304.5,135.2 c -6.6,0 -7.1,2.8 -7.1,-44.3 0,-45.8 2.1,-41.4 6.6,-41.4 l 7.4,0 c 5.6,0 5.8,0.4 5.8,2 0,5 -1.6,9.9 -1.6,24.5 0,33.8 5.2,54.5 5.2,55.7 0,4.3 -4,3.5 -7.1,3.5 l -9.2,0 z m -5.6,-105 c 0,-5.8 5,-9.2 10.3,-9.2 5.4,0 10.3,3.5 10.3,9.2 0,5.7 -5,8.8 -10.3,8.8 -5.4,0 -10.3,-3.1 -10.3,-8.8 z"
         id="path4220"
         inkscape:connector-curvature="0"
         style="fill:#ececec" /><path
         class="st0"
         d="m 332.1,113.2 c 0,-6.3 3.2,-14.3 4.3,-14.3 0.7,0 4,20.2 23,20.2 5.5,0 11.9,-2.8 11.9,-9.6 0,-13.8 -36.2,-10.2 -36.2,-36.8 0,-16.3 13.1,-25.2 27.6,-25.2 16.7,0 26,10 26,12.7 0,2.5 -7.5,13.4 -10.6,13.4 -3.5,0 -4.3,-10.3 -16.6,-10.3 -4.2,0 -9.8,1.9 -9.8,5.9 0,13.8 39.1,13.5 39.1,40.7 0,17.4 -14.5,27.3 -30.5,27.3 -14.1,0 -28.2,-8.3 -28.2,-24 z"
         id="path4222"
         inkscape:connector-curvature="0"
         style="fill:#ececec" /><path
         class="st0"
         d="m 425.1,20.9 c 1.2,0 2.1,1.5 2.1,2.8 0,1.9 -5.1,15 -5.1,25.7 0,1.6 0,4.2 2.3,4.2 1.1,0 3.2,-1.2 6.2,-2.9 3.1,-1.6 6.8,-3.2 11.3,-3.2 12.2,0 21.2,8.7 21.2,41 0,12.9 -1.9,46.7 -6,46.7 l -14.1,0 c -1.2,0 -4.8,0.4 -4.8,-1.7 0,-0.9 6.7,-27.5 6.7,-45.3 0,-20.8 -3.5,-24.9 -10,-24.9 -13.7,0 -13.9,20.9 -13.9,30.4 0,26.8 2.9,35.5 2.9,39.4 0,2.1 -2.5,2.1 -3.9,2.1 l -13.3,0 c -3.9,0 -3.9,4.6 -3.9,-54.9 0,-10.7 0.3,-59.3 7.6,-59.3 l 14.7,0 z"
         id="path4224"
         inkscape:connector-curvature="0"
         style="fill:#ececec" /><path
         class="st0"
         d="m 483.1,135.2 c -3.3,0 -7.4,2.5 -7.4,-47.7 0,-66.2 7,-63.8 9.2,-63.8 l 34.7,0 c 23.7,0 27.3,11 27.3,19.6 0,14.7 -15.3,23.3 -15.3,27.5 0,4.7 21.6,15.5 21.6,38.6 0,13.1 -7.9,25.9 -29.9,25.9 l -40.2,0 z m 32.6,-72.7 c 3.9,-2.8 9.5,-9.4 9.5,-14.9 0,-6.4 -5.6,-8 -10.7,-8 -13.3,0 -19.3,5.8 -19.3,26.7 0,2.7 -0.3,6.2 3.5,6.2 1.6,0 5.1,-1.5 7.2,-2.9 l 9.8,-7.1 z m -13.9,25.4 c -3.6,2 -5.8,2.8 -5.8,7.2 0,20.4 5.1,22.9 16.1,22.9 9.6,0 19.4,-3.8 19.4,-14.2 0,-9.5 -11.8,-22.9 -15.4,-22.9 -1.7,0 -4.2,1.5 -5.6,2.3 l -8.7,4.7 z"
         id="path4226"
         inkscape:connector-curvature="0"
         style="fill:#ececec" /><path
         class="st0"
         d="m 560.5,92.2 c 0,-21.6 10.3,-44.7 33.6,-44.7 23.3,0 33.6,23.2 33.6,44.7 0,31.5 -18.2,45 -33.6,45 -15.4,0 -33.6,-13.5 -33.6,-45 z m 50.6,-3.4 c 0,-10.6 -3.8,-25.6 -17,-25.6 -13.3,0 -17,15 -17,25.6 0,10.7 3.5,26 17,26 13.5,0 17,-15.2 17,-26 z"
         id="path4228"
         inkscape:connector-curvature="0"
         style="fill:#ececec" /><path
         class="st0"
         d="m 718.1,49.5 c 5.4,0 6.3,-0.3 6.3,13.3 0,48.6 -26.4,74.5 -29.6,74.5 -3.8,0 -10.8,-14.6 -12.5,-17.9 -0.4,-0.8 -3.1,-7.5 -4.7,-7.5 -1.3,0 -2.9,3.6 -3.5,4.7 -1.5,3.1 -10.8,20.8 -14.6,20.8 -4.2,0 -26.3,-28.9 -26.3,-73.1 0,-16.2 2.1,-14.6 7.4,-14.6 l 10.6,0 c 1.6,0.1 3.1,0 3.1,2 0,1.2 -1.5,4.6 -1.5,16.6 0,22.9 6.3,40.7 8.6,40.7 2.3,0 11.4,-9 11,-42.9 0,-4.8 -0.8,-12.2 -0.8,-14.3 0,-1.6 0.5,-2.1 2,-2.1 l 13.3,0 c 1.2,0.1 2.9,-0.1 2.9,1.9 0,1.6 -1.2,10 -1.2,17 0,25 6.4,40.5 9.2,40.5 3.2,0 9.9,-19 9.9,-39 0,-8.8 -1.7,-14.9 -1.7,-18.4 0,-2.4 2.9,-2 4.7,-2 l 7.4,0 z"
         id="path4230"
         inkscape:connector-curvature="0"
         style="fill:#ececec" /><path
         class="st0"
         d="m 738.8,135.2 c -4.7,0 -4.2,-44.9 -4.2,-48 0,-6.3 -0.5,-66.3 5.5,-66.3 l 12.7,0 c 1.5,0 5.5,-0.4 5.5,2.5 0,0.8 -5.6,20.1 -5.6,53.4 0,36.8 5.1,54.9 5.1,56.7 0,2.3 -3.5,1.6 -5,1.6 l -14,0 z"
         id="path4232"
         inkscape:connector-curvature="0"
         style="fill:#ececec" /></g><g
       id="g4234"><path
         class="st0"
         d="m 776.2,47.2 c -0.9,0 -2.2,1.2 -2.2,-7.3 0,-6.9 1.4,-11.3 1.4,-11.9 0,-0.5 -0.2,-0.8 -0.7,-0.8 -1.9,0 -5.9,3 -6.4,3 -0.3,0 -0.4,0.1 -0.4,-0.7 0,-0.9 0.8,-4.5 1.3,-5.3 0.3,-0.5 4.5,-1.6 8.8,-1.6 5.1,0 9.5,1.3 9.5,2.6 0,1.3 -1.5,4 -1.9,4 -0.5,0 -1.8,-2 -4.1,-2 -1.6,0 -1.9,5.2 -1.9,7.8 0,7.5 1.7,11.1 1.7,11.7 0,0.6 -1.5,0.5 -1.8,0.5 l -3.3,0 z m 15.7,0 c -1,0 -1.5,0.1 -1.6,-0.5 -0.5,-1.5 -0.7,-7.9 -0.7,-9.8 l 0.3,-8.7 c 0.1,-1.1 0.4,-3.3 0.8,-4.3 0.3,-0.6 0.5,-0.9 1.7,-0.9 l 2.8,0 c 1.2,0 1.6,0 3.2,1.9 3,3.8 3.1,5.9 3.8,5.9 0.5,0 0.7,-2.1 4,-5.9 1.8,-2 2.3,-1.9 3.5,-1.9 l 2.3,0 c 1.1,0 1.4,0.3 1.6,0.9 0.4,0.9 0.7,3.2 0.8,4.3 l 0.3,8.7 c 0,1.9 -0.1,8.3 -0.7,9.8 -0.2,0.6 -0.6,0.5 -1.5,0.5 l -3.8,0 c -1,0 -1.7,0.1 -1.7,-0.4 0,-0.4 1.9,-5.6 1.9,-13.2 0,-0.6 0.1,-4.2 -1,-4.2 -0.5,0 -1.7,2.9 -2,3.6 -2.7,5.9 -1.5,8.7 -4.1,8.7 -2.7,0 -1.6,-2.7 -4.4,-8.7 -0.3,-0.7 -1.4,-3.6 -1.8,-3.6 -1,0 -0.9,3.6 -0.9,4.2 0,7.6 1.9,12.8 1.9,13.2 0,0.5 -0.8,0.4 -1.2,0.4 l -3.5,0 z"
         id="path4236"
         inkscape:connector-curvature="0"
         style="fill:#ececec" /></g></g></svg>