<?xml version="1.0" encoding="UTF-8" standalone="no"?>
<!-- Created with Inkscape (http://www.inkscape.org/) -->

<svg
   xmlns:dc="http://purl.org/dc/elements/1.1/"
   xmlns:cc="http://creativecommons.org/ns#"
   xmlns:rdf="http://www.w3.org/1999/02/22-rdf-syntax-ns#"
   xmlns:svg="http://www.w3.org/2000/svg"
   xmlns="http://www.w3.org/2000/svg"
   xmlns:sodipodi="http://sodipodi.sourceforge.net/DTD/sodipodi-0.dtd"
   xmlns:inkscape="http://www.inkscape.org/namespaces/inkscape"
   width="210mm"
   height="297mm"
   viewBox="0 0 210 297"
   version="1.1"
   id="svg843"
   inkscape:version="0.92.4 5da689c313, 2019-01-14"
   sodipodi:docname="logo.svg">
  <defs
     id="defs837" />
  <sodipodi:namedview
     id="base"
     pagecolor="#ffffff"
     bordercolor="#666666"
     borderopacity="1.0"
     inkscape:pageopacity="0.0"
     inkscape:pageshadow="2"
     inkscape:zoom="3.959798"
     inkscape:cx="325.25971"
     inkscape:cy="677.43962"
     inkscape:document-units="mm"
     inkscape:current-layer="layer1"
     showgrid="false"
     inkscape:window-width="1600"
     inkscape:window-height="863"
     inkscape:window-x="0"
     inkscape:window-y="18"
     inkscape:window-maximized="0" />
  <metadata
     id="metadata840">
    <rdf:RDF>
      <cc:Work
         rdf:about="">
        <dc:format>image/svg+xml</dc:format>
        <dc:type
           rdf:resource="http://purl.org/dc/dcmitype/StillImage" />
        <dc:title />
      </cc:Work>
    </rdf:RDF>
  </metadata>
  <g
     inkscape:label="Layer 1"
     inkscape:groupmode="layer"
     id="layer1">
    <g
       id="g1401"
       inkscape:export-xdpi="300"
       inkscape:export-ydpi="300">
      <circle
         r="9.7219286"
         cy="115.42377"
         cx="94.646812"
         id="path1397"
         style="fill:#666666;fill-opacity:1;stroke:none;stroke-width:0.26458332;stroke-opacity:1" />
      <path
         style="fill:#ececec;stroke-width:0.05570205"
         inkscape:connector-curvature="0"
         id="path4214"
         d="m 97.835721,114.6111 c 0.13926,-0.33978 0.73527,-0.5236 1.29786,0.1114 0.43448,0.49018 1.130749,0.32865 1.130749,0.32865 0,0 -0.467889,-0.27851 -0.735259,-0.9358 -0.43448,-1.07505 0.707409,-2.58457 0.707409,-2.58457 0,0 -0.718549,-0.12812 -1.075049,0.24509 -0.58487,0.61272 -0.17824,1.59864 -0.61272,1.83259 -0.23952,0.12812 -0.77426,-0.078 -0.96365,-0.30079 -0.20609,-0.23952 -0.19495,-0.51803 0.0334,-0.74084 0.32307,-0.3175 0.7464,-0.25622 0.7464,-0.25622 0,0 -0.31193,-0.33979 -1.04163,-0.42891 -0.45675,-0.0557 -0.82996,0.13368 -1.05276,0.26737 -0.80211,-0.45119 -1.94958,-0.80211 -2.98563,-0.82439 -0.90238,-0.0167 -1.60979,0.078 -2.12782,0.20053 0.006,0.0334 0.006,0.0668 0,0.10026 -0.0334,0.1504 -0.16711,0.23952 -0.30636,0.2061 -0.0891,-0.0223 -0.15597,-0.0891 -0.18382,-0.17268 -0.38434,0.12812 -0.57373,0.23952 -0.57373,0.23952 0,0 0.26737,0.47904 1.1586,0.88566 -0.96364,-0.34535 -1.40926,-0.81325 -1.40926,-0.81325 0,0 -0.20053,-0.0446 -0.42891,0.0334 -0.26737,0.0947 -0.30079,0.26737 -0.25623,0.34536 0.0111,0.0167 0.0891,0.0724 0.21167,0.15039 -0.11697,0.25623 -0.25066,0.66286 -0.30079,1.11404 -0.15039,1.33685 0.18382,1.983 0.18382,1.983 0,0 0.15596,-1.08619 0.53474,-1.78804 0.0891,-0.16711 0.17267,-0.30079 0.25066,-0.41219 0,0.12254 0,0.25065 0.006,0.38434 0.0334,0.85781 0.42333,1.54295 0.42333,1.54295 0.0668,-0.63501 0.0446,-0.57373 0.2061,-1.18089 0.0334,-0.12811 0.0724,-0.23952 0.1114,-0.33421 0.21724,0.75755 0.75755,1.23102 0.75755,1.23102 -0.0613,-0.57931 -0.0836,-0.39549 -0.0501,-0.96922 0.006,-0.12811 0.0223,-0.23952 0.039,-0.33421 0.0446,0.12254 0.1114,0.25066 0.19496,0.35649 0.35649,0.44005 0.77983,0.48461 0.77983,0.48461 0,0 -0.2061,-0.33421 -0.27851,-0.73527 -0.039,-0.21167 -0.0167,-0.35092 -0.0223,-0.42333 0.23395,-0.039 0.4289,-0.12255 0.58487,-0.21724 0.15039,0.35092 0.64614,1.65435 0.35649,2.8408 -0.0501,-0.0279 -0.11697,-0.0724 -0.19496,-0.13925 -0.27294,-0.23952 -0.37877,-0.44005 -0.37877,-0.44005 0,0 -0.0835,0.50689 0.1114,0.9915 0.0223,0.0501 0.039,0.0947 0.0557,0.13925 -0.0167,-0.0111 -0.0334,-0.0167 -0.0501,-0.0279 -0.46232,-0.27294 -0.67956,-0.74641 -0.67956,-0.74641 0,0 -0.0167,0.69071 0.30636,1.34242 -0.10583,-0.0446 -0.22281,-0.10026 -0.35649,-0.18381 -0.5236,-0.3175 -0.4679,-0.28965 -0.94137,-0.69071 0,0 0.25066,0.74641 0.80211,1.37027 0.0334,0.039 0.0668,0.0724 0.10027,0.11141 -0.17825,-0.039 -0.40663,-0.10584 -0.67957,-0.22838 -0.74641,-0.33421 -0.66285,-0.30636 -1.35356,-0.75755 0,0 0.41777,0.88009 1.20317,1.59865 -0.28409,0.18939 -0.48461,0.3175 -0.50132,0.40105 -0.0334,0.16711 0.0947,0.5236 0.67956,0.65172 0.44562,0.10026 0.69628,0.13368 0.93023,0.0111 0.25066,-0.12812 1.01377,-1.0472 1.38141,-2.22251 -0.23395,1.39255 -1.12518,2.28378 -1.12518,2.28378 0,0 3.56493,-0.22838 4.77923,-2.25036 0.17825,0.0724 0.54031,0.14482 1.18646,0 0.8411,-0.18939 1.25329,-0.57373 1.25329,-0.57373 0,0 -0.88566,-0.19496 -1.26444,-0.57373 -0.36763,-0.36764 -0.47903,-0.73527 -0.47903,-0.73527 0,0 -0.0111,0.43448 -0.13926,0.84667 -0.0836,0.25623 -0.21724,0.46233 -0.35092,0.61829 0.0111,-0.0279 0.0223,-0.0557 0.0334,-0.0891 0.44562,-1.28115 0.17825,-1.68777 0.36206,-2.13896 z m -5.59805,-2.44532 c -0.0446,0.22838 -0.2618,0.3732 -0.47347,0.3175 -0.21724,-0.0501 -0.35092,-0.27851 -0.30636,-0.50689 0.0446,-0.22838 0.2618,-0.3732 0.47347,-0.3175 0.21723,0.0557 0.35092,0.27851 0.30636,0.50689 z m 2.62913,4.60099 c -0.039,0.38434 0.27851,0.61829 0.27851,0.61829 0,0 -0.28408,-0.0613 -0.40662,-0.13925 -0.28965,-0.18939 -0.35649,-0.38992 -0.35649,-0.55702 -0.23952,0.8411 -0.48461,1.09733 -0.48461,1.09733 0,0 0.17825,-0.51803 0.30636,-1.19203 0.14483,-0.76868 -0.0836,-1.4761 -0.0836,-1.4761 0,0 0.40105,0.51246 0.32864,1.23101 0.10026,-0.28408 0.33421,-0.73526 0.70742,-0.85781 0.40662,-0.13925 0.84667,0.23395 0.84667,0.23395 0,0 -1.04163,0.12255 -1.13633,1.04163 z"
         class="st0" />
    </g>
  </g>
</svg>
